<?xml version="1.0" standalone="no"?><!DOCTYPE svg PUBLIC "-//W3C//DTD SVG 1.1//EN" "http://www.w3.org/Graphics/SVG/1.1/DTD/svg11.dtd"><svg t="1592269243251" class="icon" viewBox="0 0 1059 1024" version="1.1" xmlns="http://www.w3.org/2000/svg" p-id="35666" xmlns:xlink="http://www.w3.org/1999/xlink" width="206.8359375" height="200"><defs><style type="text/css"></style></defs><path d="M20.200385 52.310702c-15.000863 5.513138-22.821826 22.180764-17.308688 37.181627 5.513138 15.129076 22.180764 22.821826 37.181626 17.308688L135.719853 71.927216s239.500961 656.704455 239.885598 659.52513c-74.491466 27.052839-106.544592 117.570868-79.363541 192.190546 28.847814 79.107116 116.288743 119.878693 195.267646 91.159092 69.747603-25.386076 109.621692-96.544017 98.21078-167.189108 1.923188-1.153913 307.581801-111.801305 307.581801-111.801305l112.827005 52.69534c7.308113 3.333525 15.257288 3.461738 22.180764 1.0257 6.923475-2.56425 12.949463-7.69275 16.411201-15.000863 6.795263-14.488013 0.51285-31.796701-14.103376-38.591965l-134.623131-62.824127L576.770873 791.840436l-22.821826-21.539701 487.592159-177.446108-124.750768-342.583816 26.411776-9.615938-67.05514-184.497795-566.699276 206.165709 67.183353 184.497796 26.411776-9.615938 105.518893 289.888475c-13.334101-9.359513-45.51544-28.206751-80.261029-15.513713-1.794975-4.872075-4.743863-13.205888-4.743863-13.205888L169.183317 0 20.200385 52.310702z m569.648163 406.433644c-5.513138-15.129076 1.666763-30.514576 16.795839-35.899502l145.008344-52.69534c15.000863-5.513138 30.514576 1.666763 35.899501 16.795839 5.513138 15.129076-1.666763 30.514576-16.795838 35.899501l-145.008344 52.69534c-15.000863 5.384925-30.386364-1.794975-35.899502-16.795838zM410.094615 374.893367l-28.719601-79.107116L842.555397 127.956081l28.719602 79.107116L410.094615 374.893367zM350.732225 903.898166c-17.821538-48.848965 7.436325-103.211067 56.28529-120.904393 48.848965-17.821538 103.082855 7.564538 120.904393 56.413503 17.821538 48.848965-7.436325 103.082855-56.28529 120.904393-48.848965 17.821538-103.082855-7.564538-120.904393-56.413503z m0 0" p-id="35667"></path></svg>